<?xml version="1.0" encoding="utf-8"?>
<!-- Generator: Adobe Illustrator 26.0.0, SVG Export Plug-In . SVG Version: 6.00 Build 0)  -->
<svg version="1.1" id="Layer_1" xmlns="http://www.w3.org/2000/svg" xmlns:xlink="http://www.w3.org/1999/xlink" x="0px" y="0px"
	 viewBox="0 0 328.7 84.2" style="enable-background:new 0 0 328.7 84.2;" xml:space="preserve">
<style type="text/css">
	.st0{fill:#4B9CD3;}
	.st1{fill:#F04A00;}
	.st2{fill:#002366;}
</style>
<g>
	<path class="st0" d="M96.8,68.3L96.3,70h-7.4l-1.3,4.9h5.7l-0.4,1.7h-5.7L85.5,83H83l3.9-14.7H96.8z"/>
	<path class="st0" d="M110.3,68.3L106.4,83h-2.4l3.9-14.7H110.3z"/>
	<path class="st0" d="M132,76.8c-1,3.7-4.5,6.2-7.9,6.2c-3.5,0-5.7-2.6-4.7-6.2s4.4-5.7,7.8-5.7C130.7,71.1,133,73.2,132,76.8z
		 M129.5,76.8c0.7-2.7-0.7-4-2.8-4c-2.1,0-4.2,1.3-4.9,4c-0.7,2.7,0.6,4.4,2.7,4.4C126.6,81.2,128.8,79.5,129.5,76.8z"/>
	<path class="st0" d="M145,71.5l0.8,9.6l6.6-9.6h2l1.5,9.6l6.1-9.6h2.3L157.1,83h-3.3l-1.3-8.1l-5.7,8.1h-3.3l-0.9-11.4H145z"/>
	<path class="st0" d="M191.9,71.5L188.8,83h-2.4l3.1-11.5H191.9z M191,70.3c-0.9,0-1.5-0.5-1.4-1.1s1-1.1,1.9-1.1
		c0.9,0,1.5,0.5,1.3,1.1C192.8,69.8,191.9,70.3,191,70.3z"/>
	<path class="st0" d="M215.3,75.9l-1.9,7.1h-2.4l1.7-6.6c0.3-1.3,0.6-3.5-1.7-3.5c-4.2,0-5.6,4.6-5.6,4.6l-1.4,5.5h-2.4l3-11.5h2.4
		l-0.6,2.1c1.4-1.3,3-2.3,5.4-2.3C214.3,71.4,216.2,72.7,215.3,75.9z"/>
	<path class="st0" d="M251.3,70.8c-0.5-0.5-1.4-1-2.9-1c-1.8,0-3.8,0.9-4.2,2.4c-0.8,3,7.7,1.9,6.4,6.4c-0.7,2.7-4.1,4.4-7.3,4.4
		c-2.3,0-4.2-0.9-4.2-1.2l1.7-1.8c0.6,0.5,1.6,0.9,3,0.9c1.8,0,3.8-0.9,4.1-2.4c0.8-3-7.6-1.9-6.4-6.4c0.7-2.7,4-4.4,7.3-4.4
		c2.3,0,4.2,0.9,4.2,1.2L251.3,70.8z"/>
	<path class="st0" d="M269.1,71.5l-1.5,1.6h-1.8l-2.6,9.9h-2.4l2.6-9.9h-2.1l0.4-1.6h2l0.7-2.7h2.4l-0.7,2.7H269.1z"/>
	<path class="st0" d="M292.5,69.9L281.2,83h-2.7l3.2-3.7l-2.7-9.4h2.7l2.1,7l6.1-7H292.5z"/>
	<path class="st0" d="M306.2,68.3L302.3,83h-2.4l3.9-14.7H306.2z"/>
	<path class="st0" d="M326.9,77.6h-9.3c-0.4,1.9,0.7,3.7,2.5,3.7c1.3,0,2-0.5,2.7-1.2l1,1.5c-1.2,0.7-2.4,1.4-4.3,1.4
		c-3.5,0-5.3-2.8-4.5-5.9c1.1-3.9,4.3-6,7.7-6C326.8,71.1,328.1,74,326.9,77.6z M318.2,76h6.7c0.1-1.9-0.6-3.1-2.4-3.1
		C320.5,72.8,319.1,73.8,318.2,76z"/>
</g>
<g>
	<path class="st1" d="M320.8,11c-3.3,0-5.9-2.6-5.9-5.7c0-3,2.6-5.6,5.9-5.6c3.3,0,6,2.6,6,5.6C326.7,8.4,324,11,320.8,11z"/>
	<path class="st2" d="M120.7,37.5c0,10.1-7.7,14.5-13.9,14.5H88.2c-3.1,0-5.2-2.1-5.2-5.2V5.1c0-3.1,2.1-5.2,5.2-5.2h14.3
		c3.8,0,16.5,0.7,16.5,13.9c0,9.8-9.5,10.4-10.4,10.7C109.2,24.7,120.7,26.5,120.7,37.5z M92.7,28.5l0.1,15.3h10.4
		c5.2,0,7.2-1.9,7.2-7.8c0-6.2-4-7.4-7.2-7.4H92.7z M92.9,8l-0.1,12.3h10.4c2.6,0,5.4-0.9,5.4-6.5c0-4.4-3.2-5.8-5.4-5.8H92.9z"/>
	<path class="st2" d="M141.6,0h4.3c2.3,0,4.2,1.4,5,3.6l14.4,43.7c1,2.8-0.4,4.7-3.4,4.7h-1.1c-2.3,0-4.2-1.4-5-3.6l-3.4-10.7h-17.2
		l-3.4,10.7c-0.7,2.2-2.7,3.6-5,3.6h-1.1c-3,0-4.3-1.9-3.4-4.7l14.3-43.7C137.4,1.4,139.3,0,141.6,0z M143.8,11.8l-5.9,17.7h11.8
		L143.8,11.8z"/>
	<path class="st2" d="M196.1,32.9l10.5,14.5c2,2.8,1,4.6-2.4,4.6h-3.1c-1.6,0-3.3-0.8-4.2-2.2L184.6,33h-3v13.9c0,3-1.9,4.9-4.9,4.9
		c-3,0-4.9-1.9-4.9-4.9V5.1c0-3.1,2.1-5.2,5.2-5.2h15.6c8,0,14.2,6.2,14.2,16.8C206.7,26.2,202.5,31.7,196.1,32.9z M181.6,24.8h8.3
		c3,0,6.3-1,6.3-8.1c0-8-4.3-8.6-6.6-8.6h-8.1V24.8z"/>
	<path class="st2" d="M252.3-0.1c2.9,0,4.8,1.9,4.8,4.8l0.1,42c0,3.1-2.1,5.2-5.2,5.2h-4.8c-2,0-3.9-1.2-4.7-2.9l-16.9-34.5v32.5
		c0,3-1.9,4.9-4.9,4.9c-3,0-4.9-1.9-4.9-4.9V5.1c0-3.1,2.1-5.2,5.2-5.2h4.5c2,0,3.9,1.2,4.7,2.9l17.2,35V4.8
		C247.4,1.9,249.3-0.1,252.3-0.1z"/>
	<path class="st2" d="M309.4,25.9c0,14.2-9.5,26.1-23.2,26.1c-13.7,0-23-11.9-23-26.1c0-14.2,9.3-26.2,23-26.2
		C299.9-0.3,309.4,11.7,309.4,25.9z M286.2,42.3c6.3,0,12.7-6.8,12.7-16.4c0-9.6-6.4-16.5-12.7-16.5c-6.3,0-12.6,6.9-12.6,16.5
		C273.6,35.5,279.9,42.3,286.2,42.3z"/>
	<path class="st2" d="M320.8,13.2c2.8,0,4.8,1.8,4.8,4.5l0.1,29.7c0,2.7-1.9,4.5-4.8,4.5c-2.9,0-4.8-1.8-4.8-4.6V17.8
		C316.1,15.1,318,13.2,320.8,13.2z"/>
</g>
<path class="st1" d="M38.2-0.3c-0.4,0-0.7,0-1.1,0H6.9C0.4-0.3,0,2.9,0,5.7v32.9c0,2.7,0.3,3.3,2.7,2.8c7.6-2.2,15.6-5.3,19.6-10.4
	c5.5-7.1,9.5-13.9,13.4-20.5c1.6-2.7,3.1-5.3,4.8-7.8c0,0,0-0.1,0.1-0.1C41.7,0.4,40.8-0.2,38.2-0.3z"/>
<path class="st2" d="M63.1,57.7c0-0.8-0.1-1.6-0.2-2.5c0-0.2-0.1-0.4-0.1-0.6c0-0.2,0-0.3-0.1-0.5l0,0c-0.4-2.3-1.1-4.6-2.1-6.6
	c-1.1-2-2.7-4.1-4.9-5.9c-3.4-2.6-5.7-2.9-8.5-2.5c-9.1,1.7-17.4,5.4-22.8,12.5c-2.7,3.5-5,6.7-7.1,9.5C11.1,69.7,6.8,75.4,1.5,80.3
	c0,0,0,0,0,0C-0.3,82.1-1.4,83,4,83h34.3c0.5,0,1.7,0,3,0c1.2,0,2.5,0,3.3-0.1c0,0,0,0,0.1,0C54.3,82,62.1,73.6,63,62.9c0,0,0,0,0,0
	c0,0,0,0,0,0c0,0,0,0,0,0C63.2,60.9,63.2,59.2,63.1,57.7z"/>
<path class="st0" d="M48.6,33.4C48.6,33.4,48.6,33.4,48.6,33.4c3.7-0.5,5.5-0.9,7.1-2c0.8-0.6,1.6-1.3,2.2-2.1
	c0.3-0.3,0.6-0.7,1-1.1l0,0c3.2-4,4.8-9.3,4.1-14.7c-0.7-5-3.3-9.4-7.4-12.5c0,0,0,0,0,0c0,0,0,0,0,0c-0.2-0.1-0.4-0.3-0.6-0.4
	c-1.2-0.8-2.2-0.9-3-0.8c0,0,0,0,0,0c0,0,0,0-0.1,0c0,0-0.1,0-0.1,0C50,0.3,48.4,2.3,47,4.3c0,0-0.1,0.1-0.1,0.1
	c-0.1,0.2-0.2,0.3-0.3,0.5c-0.2,0.2-0.3,0.5-0.4,0.7c0,0,0,0,0,0c-1.7,2.7-3.3,5.4-5,8.2c-4,6.7-8,13.6-13.7,20.9
	c-5.3,6.8-14.4,10.3-23.2,12.8c0,0,0,0,0,0C1.6,48.4,0,49.1,0,52.4l0,0v16.5c0,3.4,1,3.5,2.6,1.8c2.8-3.3,5.7-7.2,9.6-12.4
	c2.1-2.8,4.4-5.9,7.1-9.5c6.9-9.2,17.6-13.6,28.8-15.3c0.1,0,0.2,0,0.3-0.1C48.5,33.4,48.5,33.4,48.6,33.4z"/>
</svg>
