<svg id="Layer_1" data-name="Layer 1" xmlns="http://www.w3.org/2000/svg" viewBox="0 0 163.91 216.19"><defs><style>.cls-1{fill:#f04a00;}.cls-2{fill:#092362;}.cls-3{fill:#6199cc;}</style></defs><path class="cls-1" d="M325.46,312.88c-.95,0-1.94,0-3,0H244.17c-17,0-18,8.21-18,15.62v85.29c0,7,.89,8.68,6.92,7.16,19.76-5.71,40.54-13.7,50.88-27.08,14.31-18.51,24.78-36.17,34.9-53.25,4.09-6.9,8.16-13.65,12.35-20.35.06-.12.08-.22.16-.36C334.55,314.78,332,313.05,325.46,312.88Z" transform="translate(-226.19 -312.85)"/><path class="cls-2" d="M390,463.42c-.06-2.13-.18-4.27-.45-6.44-.07-.52-.18-1-.26-1.54s-.1-.85-.15-1.25l-.05,0a63,63,0,0,0-5.45-17.08A56.08,56.08,0,0,0,371,421.77c-8.75-6.68-14.74-7.53-22-6.38-23.58,4.4-45.29,14-59.19,32.35-6.95,9.19-13,17.33-18.36,24.62C255,494.5,243.91,509.43,230.1,522.1l0,.06c-4.7,4.49-7.59,6.84,6.42,6.84h88.91c1.4,0,4.5,0,7.73,0s6.6,0,8.55-.23c.08,0,.1,0,.17,0,25.3-2.32,45.51-24.19,48-51.78h0a.34.34,0,0,0,0-.1A110.61,110.61,0,0,0,390,463.42Z" transform="translate(-226.19 -312.85)"/><path class="cls-3" d="M352.29,400.33l.12,0c9.58-1.35,14.25-2.31,18.31-5.08a51.71,51.71,0,0,0,5.84-5.42c.78-.88,1.59-1.83,2.48-2.9h0a50.72,50.72,0,0,0,10.61-38.24,49,49,0,0,0-19.18-32.51h0l0,0c-.51-.39-1-.75-1.55-1.12-3.18-2.09-5.76-2.42-7.84-2h0l-.17,0-.31.08c-4.46,1.14-8.71,6.46-12.2,11.65l-.23.28c-.27.42-.52.85-.79,1.27-.4.61-.79,1.21-1.16,1.8v.06c-4.39,7-8.62,14-12.9,21.24-10.26,17.31-20.87,35.21-35.66,54.35-13.64,17.64-37.42,26.79-60.25,33.27l-.06,0c-7,2.07-11,3.86-11,12.66h0v42.78c0,8.77,2.67,9.1,6.7,4.62,7.23-8.53,14.86-18.79,24.84-32.25,5.38-7.27,11.4-15.38,18.34-24.54,18-23.78,45.78-35.17,74.87-39.81l.87-.14Z" transform="translate(-226.19 -312.85)"/></svg>