<?xml version="1.0" encoding="utf-8"?>
<!-- Generator: Adobe Illustrator 26.0.0, SVG Export Plug-In . SVG Version: 6.00 Build 0)  -->
<svg version="1.1" id="Layer_1" xmlns="http://www.w3.org/2000/svg" xmlns:xlink="http://www.w3.org/1999/xlink" x="0px" y="0px"
	 viewBox="0 0 330 85" style="enable-background:new 0 0 330 85;" xml:space="preserve">
<style type="text/css">
	.st0{fill:#FFFFFF;}
</style>
<g>
	<g>
		<path class="st0" d="M98.1,69.4l-0.5,1.7h-7.4L88.9,76h5.7l-0.4,1.7h-5.7l-1.7,6.4h-2.5l3.9-14.7H98.1z"/>
		<path class="st0" d="M111.6,69.4l-3.9,14.7h-2.4l3.9-14.7H111.6z"/>
		<path class="st0" d="M133.3,77.9c-1,3.7-4.5,6.2-7.9,6.2c-3.5,0-5.7-2.6-4.7-6.2s4.4-5.7,7.8-5.7C132,72.2,134.3,74.3,133.3,77.9z
			 M130.8,77.9c0.7-2.7-0.7-4-2.8-4c-2.1,0-4.2,1.3-4.9,4c-0.7,2.7,0.6,4.4,2.7,4.4C127.9,82.3,130.1,80.6,130.8,77.9z"/>
		<path class="st0" d="M146.3,72.6l0.8,9.6l6.6-9.6h2l1.5,9.6l6.1-9.6h2.3l-7.2,11.5h-3.3l-1.3-8.1l-5.7,8.1h-3.3l-0.9-11.4
			L146.3,72.6L146.3,72.6z"/>
		<path class="st0" d="M193.2,72.6l-3.1,11.5h-2.4l3.1-11.5H193.2z M192.3,71.4c-0.9,0-1.5-0.5-1.4-1.1s1-1.1,1.9-1.1
			s1.5,0.5,1.3,1.1C194.1,70.9,193.2,71.4,192.3,71.4z"/>
		<path class="st0" d="M216.6,77l-1.9,7.1h-2.4l1.7-6.6c0.3-1.3,0.6-3.5-1.7-3.5c-4.2,0-5.6,4.6-5.6,4.6l-1.4,5.5h-2.4l3-11.5h2.4
			l-0.6,2.1c1.4-1.3,3-2.3,5.4-2.3C215.6,72.5,217.5,73.8,216.6,77z"/>
		<path class="st0" d="M252.6,71.9c-0.5-0.5-1.4-1-2.9-1c-1.8,0-3.8,0.9-4.2,2.4c-0.8,3,7.7,1.9,6.4,6.4c-0.7,2.7-4.1,4.4-7.3,4.4
			c-2.3,0-4.2-0.9-4.2-1.2l1.7-1.8c0.6,0.5,1.6,0.9,3,0.9c1.8,0,3.8-0.9,4.1-2.4c0.8-3-7.6-1.9-6.4-6.4c0.7-2.7,4-4.4,7.3-4.4
			c2.3,0,4.2,0.9,4.2,1.2L252.6,71.9z"/>
		<path class="st0" d="M270.4,72.6l-1.5,1.6h-1.8l-2.6,9.9h-2.4l2.6-9.9h-2.1l0.4-1.6h2l0.7-2.7h2.4l-0.7,2.7H270.4z"/>
		<path class="st0" d="M293.8,71l-11.3,13.1h-2.7l3.2-3.7l-2.7-9.4h2.7l2.1,7l6.1-7H293.8z"/>
		<path class="st0" d="M307.5,69.4l-3.9,14.7h-2.4l3.9-14.7H307.5z"/>
		<path class="st0" d="M328.2,78.7h-9.3c-0.4,1.9,0.7,3.7,2.5,3.7c1.3,0,2-0.5,2.7-1.2l1,1.5c-1.2,0.7-2.4,1.4-4.3,1.4
			c-3.5,0-5.3-2.8-4.5-5.9c1.1-3.9,4.3-6,7.7-6C328.1,72.2,329.4,75.1,328.2,78.7z M319.5,77.1h6.7c0.1-1.9-0.6-3.1-2.4-3.1
			C321.8,73.9,320.4,74.9,319.5,77.1z"/>
	</g>
	<g>
		<path class="st0" d="M322.1,12.1c-3.3,0-5.9-2.6-5.9-5.7c0-3,2.6-5.6,5.9-5.6s6,2.6,6,5.6C328,9.5,325.3,12.1,322.1,12.1z"/>
		<path class="st0" d="M122,38.6c0,10.1-7.7,14.5-13.9,14.5H89.5c-3.1,0-5.2-2.1-5.2-5.2V6.2c0-3.1,2.1-5.2,5.2-5.2h14.3
			c3.8,0,16.5,0.7,16.5,13.9c0,9.8-9.5,10.4-10.4,10.7C110.5,25.8,122,27.6,122,38.6z M94,29.6l0.1,15.3h10.4c5.2,0,7.2-1.9,7.2-7.8
			c0-6.2-4-7.4-7.2-7.4L94,29.6L94,29.6z M94.2,9.1l-0.1,12.3h10.4c2.6,0,5.4-0.9,5.4-6.5c0-4.4-3.2-5.8-5.4-5.8
			C104.5,9.1,94.2,9.1,94.2,9.1z"/>
		<path class="st0" d="M142.9,1.1h4.3c2.3,0,4.2,1.4,5,3.6l14.4,43.7c1,2.8-0.4,4.7-3.4,4.7h-1.1c-2.3,0-4.2-1.4-5-3.6l-3.4-10.7
			h-17.2l-3.4,10.7c-0.7,2.2-2.7,3.6-5,3.6H127c-3,0-4.3-1.9-3.4-4.7l14.3-43.7C138.7,2.5,140.6,1.1,142.9,1.1z M145.1,12.9
			l-5.9,17.7H151L145.1,12.9z"/>
		<path class="st0" d="M197.4,34l10.5,14.5c2,2.8,1,4.6-2.4,4.6h-3.1c-1.6,0-3.3-0.8-4.2-2.2l-12.3-16.8h-3V48c0,3-1.9,4.9-4.9,4.9
			s-4.9-1.9-4.9-4.9V6.2c0-3.1,2.1-5.2,5.2-5.2h15.6c8,0,14.2,6.2,14.2,16.8C208,27.3,203.8,32.8,197.4,34z M182.9,25.9h8.3
			c3,0,6.3-1,6.3-8.1c0-8-4.3-8.6-6.6-8.6h-8.1v16.7H182.9z"/>
		<path class="st0" d="M253.6,1c2.9,0,4.8,1.9,4.8,4.8l0.1,42c0,3.1-2.1,5.2-5.2,5.2h-4.8c-2,0-3.9-1.2-4.7-2.9l-16.9-34.5v32.5
			c0,3-1.9,4.9-4.9,4.9s-4.9-1.9-4.9-4.9V6.2c0-3.1,2.1-5.2,5.2-5.2h4.5c2,0,3.9,1.2,4.7,2.9l17.2,35v-33C248.7,3,250.6,1,253.6,1z"
			/>
		<path class="st0" d="M310.7,27c0,14.2-9.5,26.1-23.2,26.1s-23-11.9-23-26.1s9.3-26.2,23-26.2C301.2,0.8,310.7,12.8,310.7,27z
			 M287.5,43.4c6.3,0,12.7-6.8,12.7-16.4s-6.4-16.5-12.7-16.5c-6.3,0-12.6,6.9-12.6,16.5S281.2,43.4,287.5,43.4z"/>
		<path class="st0" d="M322.1,14.3c2.8,0,4.8,1.8,4.8,4.5l0.1,29.7c0,2.7-1.9,4.5-4.8,4.5s-4.8-1.8-4.8-4.6V18.9
			C317.4,16.2,319.3,14.3,322.1,14.3z"/>
	</g>
	<path class="st0" d="M39.5,0.8c-0.4,0-0.7,0-1.1,0H8.2c-6.5,0-6.9,3.2-6.9,6v32.9c0,2.7,0.3,3.3,2.7,2.8
		c7.6-2.2,15.6-5.3,19.6-10.4C29.1,25,33.1,18.2,37,11.6c1.6-2.7,3.1-5.3,4.8-7.8c0,0,0-0.1,0.1-0.1C43,1.5,42.1,0.9,39.5,0.8z"/>
	<path class="st0" d="M64.4,58.8c0-0.8-0.1-1.6-0.2-2.5c0-0.2-0.1-0.4-0.1-0.6c0-0.2,0-0.3-0.1-0.5l0,0c-0.4-2.3-1.1-4.6-2.1-6.6
		c-1.1-2-2.7-4.1-4.9-5.9c-3.4-2.6-5.7-2.9-8.5-2.5c-9.1,1.7-17.4,5.4-22.8,12.5c-2.7,3.5-5,6.7-7.1,9.5
		C12.4,70.8,8.1,76.5,2.8,81.4l0,0c-1.8,1.8-2.9,2.7,2.5,2.7h34.3c0.5,0,1.7,0,3,0c1.2,0,2.5,0,3.3-0.1c0,0,0,0,0.1,0
		c9.6-0.9,17.4-9.3,18.3-20l0,0l0,0l0,0C64.5,62,64.5,60.3,64.4,58.8z"/>
	<path class="st0" d="M49.9,34.5L49.9,34.5c3.7-0.5,5.5-0.9,7.1-2c0.8-0.6,1.6-1.3,2.2-2.1c0.3-0.3,0.6-0.7,1-1.1l0,0
		c3.2-4,4.8-9.3,4.1-14.7c-0.7-5-3.3-9.4-7.4-12.5l0,0l0,0c-0.2-0.1-0.4-0.3-0.6-0.4c-1.2-0.8-2.2-0.9-3-0.8l0,0c0,0,0,0-0.1,0h-0.1
		c-1.8,0.5-3.4,2.5-4.8,4.5l-0.1,0.1C48.1,5.7,48,5.8,47.9,6c-0.2,0.2-0.3,0.5-0.4,0.7l0,0c-1.7,2.7-3.3,5.4-5,8.2
		c-4,6.7-8,13.6-13.7,20.9c-5.3,6.8-14.4,10.3-23.2,12.8l0,0c-2.7,0.9-4.3,1.6-4.3,4.9l0,0V70c0,3.4,1,3.5,2.6,1.8
		c2.8-3.3,5.7-7.2,9.6-12.4c2.1-2.8,4.4-5.9,7.1-9.5c6.9-9.2,17.6-13.6,28.8-15.3c0.1,0,0.2,0,0.3-0.1
		C49.8,34.5,49.8,34.5,49.9,34.5z"/>
</g>
</svg>
