<svg width="145" height="38" viewBox="0 0 145 38" fill="none" xmlns="http://www.w3.org/2000/svg">
<g filter="url(#filter0_dd_1019_33137)">
<rect x="3.1" y="2.1" width="31.8" height="31.8" rx="7.9" fill="white"/>
<rect x="3.1" y="2.1" width="31.8" height="31.8" rx="7.9" fill="url(#paint0_linear_1019_33137)"/>
<rect x="3.1" y="2.1" width="31.8" height="31.8" rx="7.9" stroke="#D0D5DD" stroke-width="0.2"/>
<path d="M13.522 22.4014L12.5073 7.89136L15.1358 7.70755L15.5654 13.8502L22.289 13.3801L21.8595 7.23739L24.4951 7.05309L25.5097 21.5631L22.8741 21.7474L22.4431 15.5835L15.7195 16.0536L16.1505 22.2176L13.522 22.4014Z" fill="#1F2937"/>
<g filter="url(#filter1_b_1019_33137)">
<path d="M3 18H35V21.2C35 25.6804 35 27.9206 34.1281 29.6319C33.3611 31.1372 32.1372 32.3611 30.6319 33.1281C28.9206 34 26.6804 34 22.2 34H15.8C11.3196 34 9.07937 34 7.36808 33.1281C5.86278 32.3611 4.63893 31.1372 3.87195 29.6319C3 27.9206 3 25.6804 3 21.2V18Z" fill="white" fill-opacity="0.2"/>
</g>
</g>
<path d="M98.9204 14.4531C98.8542 13.8329 98.5748 13.3499 98.0824 13.0043C97.5947 12.6586 96.9602 12.4858 96.179 12.4858C95.6297 12.4858 95.1586 12.5687 94.7656 12.7344C94.3726 12.9001 94.072 13.125 93.8636 13.4091C93.6553 13.6932 93.5488 14.0175 93.544 14.3821C93.544 14.6851 93.6127 14.9479 93.75 15.1704C93.892 15.393 94.0838 15.5824 94.3253 15.7386C94.5668 15.8901 94.8343 16.018 95.1278 16.1222C95.4214 16.2263 95.7173 16.3139 96.0156 16.3849L97.3793 16.7258C97.9285 16.8537 98.4564 17.0265 98.9631 17.2443C99.4744 17.4621 99.9313 17.7367 100.334 18.0682C100.741 18.3996 101.063 18.7997 101.3 19.2685C101.536 19.7372 101.655 20.2865 101.655 20.9162C101.655 21.7685 101.437 22.5189 101.001 23.1676C100.566 23.8115 99.9361 24.3158 99.1122 24.6804C98.2931 25.0402 97.3011 25.2202 96.1364 25.2202C95.0047 25.2202 94.0222 25.045 93.1889 24.6946C92.3603 24.3442 91.7116 23.8329 91.2429 23.1605C90.7789 22.4882 90.5279 21.669 90.4901 20.7031H93.0824C93.1203 21.2097 93.2765 21.6312 93.5511 21.9673C93.8257 22.3035 94.1832 22.5544 94.6236 22.7202C95.0686 22.8859 95.5658 22.9687 96.1151 22.9687C96.688 22.9687 97.1899 22.8835 97.6207 22.7131C98.0563 22.5379 98.3972 22.2964 98.6435 21.9886C98.8897 21.6761 99.0151 21.3115 99.0199 20.8949C99.0151 20.5161 98.9039 20.2036 98.6861 19.9574C98.4683 19.7064 98.1629 19.4981 97.7699 19.3324C97.3816 19.1619 96.9271 19.0104 96.4062 18.8778L94.7514 18.4517C93.5535 18.1439 92.6065 17.6776 91.9105 17.0526C91.2192 16.4228 90.8736 15.5871 90.8736 14.5454C90.8736 13.6884 91.1056 12.938 91.5696 12.294C92.0383 11.6501 92.6752 11.1506 93.4801 10.7954C94.285 10.4356 95.1965 10.2557 96.2145 10.2557C97.2467 10.2557 98.151 10.4356 98.9276 10.7954C99.7088 11.1506 100.322 11.6454 100.767 12.2798C101.212 12.9096 101.442 13.634 101.456 14.4531H98.9204Z" fill="#1D2939"/>
<path d="M72.8906 10.4545H76.1151L80.4332 20.9943H80.6037L84.9219 10.4545H88.1463V25H85.6179V15.0071H85.483L81.4631 24.9574H79.5739L75.554 14.9858H75.419V25H72.8906V10.4545Z" fill="#1D2939"/>
<path d="M59.8828 25V10.4545H65.3374C66.4548 10.4545 67.3923 10.6487 68.1499 11.0369C68.9122 11.4252 69.4875 11.9697 69.8757 12.6704C70.2687 13.3665 70.4652 14.1785 70.4652 15.1065C70.4652 16.0393 70.2663 16.8489 69.8686 17.5355C69.4756 18.2173 68.8956 18.7452 68.1286 19.1193C67.3615 19.4886 66.4193 19.6733 65.3018 19.6733H61.4169V17.4858H64.9467C65.6001 17.4858 66.1352 17.3958 66.5518 17.2159C66.9685 17.0312 67.2763 16.7637 67.4751 16.4133C67.6787 16.0582 67.7805 15.6226 67.7805 15.1065C67.7805 14.5904 67.6787 14.1501 67.4751 13.7855C67.2715 13.4162 66.9614 13.1368 66.5447 12.9474C66.1281 12.7533 65.5907 12.6562 64.9325 12.6562H62.5178V25H59.8828ZM67.397 18.4091L70.9979 25H68.0575L64.5206 18.4091H67.397Z" fill="#1D2939"/>
<path d="M45 25V10.4545H47.6349V16.6122H54.375V10.4545H57.017V25H54.375V18.821H47.6349V25H45Z" fill="#1D2939"/>
<defs>
<filter id="filter0_dd_1019_33137" x="0" y="0" width="38" height="38" filterUnits="userSpaceOnUse" color-interpolation-filters="sRGB">
<feFlood flood-opacity="0" result="BackgroundImageFix"/>
<feColorMatrix in="SourceAlpha" type="matrix" values="0 0 0 0 0 0 0 0 0 0 0 0 0 0 0 0 0 0 127 0" result="hardAlpha"/>
<feOffset dy="1"/>
<feGaussianBlur stdDeviation="1"/>
<feColorMatrix type="matrix" values="0 0 0 0 0.0627451 0 0 0 0 0.0941176 0 0 0 0 0.156863 0 0 0 0.06 0"/>
<feBlend mode="normal" in2="BackgroundImageFix" result="effect1_dropShadow_1019_33137"/>
<feColorMatrix in="SourceAlpha" type="matrix" values="0 0 0 0 0 0 0 0 0 0 0 0 0 0 0 0 0 0 127 0" result="hardAlpha"/>
<feOffset dy="1"/>
<feGaussianBlur stdDeviation="1.5"/>
<feColorMatrix type="matrix" values="0 0 0 0 0.0627451 0 0 0 0 0.0941176 0 0 0 0 0.156863 0 0 0 0.1 0"/>
<feBlend mode="normal" in2="effect1_dropShadow_1019_33137" result="effect2_dropShadow_1019_33137"/>
<feBlend mode="normal" in="SourceGraphic" in2="effect2_dropShadow_1019_33137" result="shape"/>
</filter>
<filter id="filter1_b_1019_33137" x="0" y="15" width="38" height="22" filterUnits="userSpaceOnUse" color-interpolation-filters="sRGB">
<feFlood flood-opacity="0" result="BackgroundImageFix"/>
<feGaussianBlur in="BackgroundImageFix" stdDeviation="1.5"/>
<feComposite in2="SourceAlpha" operator="in" result="effect1_backgroundBlur_1019_33137"/>
<feBlend mode="normal" in="SourceGraphic" in2="effect1_backgroundBlur_1019_33137" result="shape"/>
</filter>
<linearGradient id="paint0_linear_1019_33137" x1="19" y1="2" x2="19" y2="34" gradientUnits="userSpaceOnUse">
<stop stop-color="white"/>
<stop offset="1" stop-color="#D0D5DD"/>
</linearGradient>
</defs>
</svg>
