<svg width="109" height="23" viewBox="0 0 109 23" fill="none" xmlns="http://www.w3.org/2000/svg">
<path d="M98.2504 22.3633C97.8299 22.3633 97.4407 22.3292 97.0827 22.261C96.7305 22.1985 96.4492 22.1246 96.239 22.0394L96.9549 19.636C97.4038 19.7667 97.8043 19.8292 98.1566 19.8235C98.5089 19.8178 98.8185 19.707 99.0856 19.4911C99.3583 19.2809 99.5884 18.9286 99.7759 18.4343L100.04 17.7269L95.293 4.36328H98.5657L101.583 14.2496H101.719L104.745 4.36328H108.026L102.784 19.0394C102.54 19.7326 102.216 20.3264 101.813 20.8207C101.409 21.3207 100.915 21.7013 100.33 21.9627C99.7504 22.2298 99.0572 22.3633 98.2504 22.3633Z" fill="#101828"/>
<path d="M86.418 17.4542V4.36328H89.4094V6.5451H89.5458C89.7844 5.78942 90.1935 5.20703 90.7731 4.79794C91.3583 4.38317 92.0259 4.17578 92.7759 4.17578C92.9464 4.17578 93.1367 4.1843 93.3469 4.20135C93.5629 4.21271 93.7418 4.2326 93.8839 4.26101V7.09908C93.7532 7.05362 93.5458 7.01385 93.2617 6.97976C92.9833 6.93999 92.7134 6.9201 92.4521 6.9201C91.8896 6.9201 91.3839 7.04226 90.935 7.28658C90.4918 7.52521 90.1424 7.8576 89.8867 8.28374C89.631 8.70987 89.5032 9.20135 89.5032 9.75817V17.4542H86.418Z" fill="#101828"/>
<path d="M77.5266 17.7104C76.2482 17.7104 75.1403 17.4292 74.2028 16.8667C73.2653 16.3042 72.538 15.5172 72.021 14.5059C71.5096 13.4945 71.2539 12.3127 71.2539 10.9604C71.2539 9.60813 71.5096 8.42347 72.021 7.40643C72.538 6.38938 73.2653 5.59961 74.2028 5.03711C75.1403 4.47461 76.2482 4.19336 77.5266 4.19336C78.805 4.19336 79.913 4.47461 80.8505 5.03711C81.788 5.59961 82.5124 6.38938 83.0238 7.40643C83.5408 8.42347 83.7994 9.60813 83.7994 10.9604C83.7994 12.3127 83.5408 13.4945 83.0238 14.5059C82.5124 15.5172 81.788 16.3042 80.8505 16.8667C79.913 17.4292 78.805 17.7104 77.5266 17.7104ZM77.5437 15.2388C78.2369 15.2388 78.8164 15.0485 79.2823 14.6678C79.7482 14.2814 80.0948 13.7644 80.3221 13.1167C80.555 12.4689 80.6715 11.7473 80.6715 10.9519C80.6715 10.1507 80.555 9.42631 80.3221 8.77859C80.0948 8.12518 79.7482 7.60529 79.2823 7.21893C78.8164 6.83256 78.2369 6.63938 77.5437 6.63938C76.8335 6.63938 76.2425 6.83256 75.771 7.21893C75.305 7.60529 74.9556 8.12518 74.7227 8.77859C74.4954 9.42631 74.3817 10.1507 74.3817 10.9519C74.3817 11.7473 74.4954 12.4689 74.7227 13.1167C74.9556 13.7644 75.305 14.2814 75.771 14.6678C76.2425 15.0485 76.8335 15.2388 77.5437 15.2388Z" fill="#101828"/>
<path d="M69.3771 4.36293V6.74929H61.8516V4.36293H69.3771ZM63.7095 1.22656H66.7947V13.5163C66.7947 13.9311 66.8572 14.2493 66.9822 14.4709C67.1129 14.6868 67.2834 14.8345 67.4936 14.9141C67.7038 14.9936 67.9368 15.0334 68.1925 15.0334C68.3857 15.0334 68.5618 15.0192 68.7209 14.9908C68.8857 14.9624 69.0107 14.9368 69.0959 14.9141L69.6158 17.326C69.451 17.3828 69.2152 17.4453 68.9084 17.5135C68.6072 17.5817 68.2379 17.6214 67.8004 17.6328C67.0277 17.6555 66.3317 17.5391 65.7124 17.2834C65.093 17.022 64.6016 16.6186 64.2379 16.0732C63.88 15.5277 63.7038 14.8459 63.7095 14.0277V1.22656Z" fill="#101828"/>
<path d="M51.3001 9.78427V17.4547H48.2148V4.36381H51.1637V6.58824H51.3171C51.6183 5.85529 52.0984 5.2729 52.7575 4.84109C53.4222 4.40927 54.2433 4.19336 55.2205 4.19336C56.1239 4.19336 56.9109 4.38654 57.5813 4.7729C58.2575 5.15927 58.7802 5.71893 59.1495 6.45188C59.5245 7.18484 59.7092 8.07404 59.7035 9.11949V17.4547H56.6183V9.59677C56.6183 8.72177 56.391 8.03711 55.9364 7.54279C55.4876 7.04847 54.8654 6.80131 54.07 6.80131C53.5302 6.80131 53.0501 6.92063 52.6296 7.15927C52.2148 7.39222 51.8881 7.73029 51.6495 8.17347C51.4165 8.61665 51.3001 9.15359 51.3001 9.78427Z" fill="#101828"/>
<path d="M39.7837 17.7104C38.4712 17.7104 37.3377 17.4377 36.3832 16.8922C35.4343 16.3411 34.7042 15.5627 34.1928 14.557C33.6815 13.5456 33.4258 12.3553 33.4258 10.986C33.4258 9.63938 33.6815 8.45756 34.1928 7.44052C34.7099 6.41779 35.4315 5.62234 36.3576 5.05415C37.2837 4.48029 38.3718 4.19336 39.6218 4.19336C40.4286 4.19336 41.19 4.32404 41.9059 4.5854C42.6275 4.84109 43.2639 5.23881 43.815 5.77859C44.3718 6.31836 44.8093 7.00586 45.1275 7.84109C45.4457 8.67063 45.6048 9.65927 45.6048 10.807V11.753H34.8746V9.67347H42.6474C42.6417 9.08256 42.5138 8.55699 42.2638 8.09677C42.0138 7.63086 41.6644 7.26438 41.2156 6.99734C40.7724 6.73029 40.2553 6.59677 39.6644 6.59677C39.0337 6.59677 38.4798 6.75018 38.0025 7.05699C37.5252 7.35813 37.1531 7.75586 36.886 8.25018C36.6246 8.73881 36.4911 9.27575 36.4854 9.86097V11.6763C36.4854 12.4377 36.6246 13.0911 36.9031 13.6365C37.1815 14.1763 37.5707 14.5911 38.0707 14.8809C38.5707 15.165 39.1559 15.307 39.8263 15.307C40.2752 15.307 40.6815 15.2445 41.0451 15.1195C41.4087 14.9888 41.7241 14.7985 41.9911 14.5485C42.2582 14.2985 42.4599 13.9888 42.5962 13.6195L45.4769 13.9434C45.2951 14.7047 44.9485 15.3695 44.4371 15.9377C43.9315 16.5002 43.2837 16.9377 42.494 17.2502C41.7042 17.557 40.8008 17.7104 39.7837 17.7104Z" fill="#101828"/>
<path d="M32.2994 4.36328L27.6374 17.4542H24.2283L19.5664 4.36328H22.8562L25.8647 14.0877H26.0011L29.0181 4.36328H32.2994Z" fill="#101828"/>
<path d="M9.53445 9.78427V17.4547H6.44922V4.36381H9.39808V6.58824H9.55149C9.85263 5.85529 10.3327 5.2729 10.9918 4.84109C11.6566 4.40927 12.4776 4.19336 13.4549 4.19336C14.3583 4.19336 15.1452 4.38654 15.8157 4.7729C16.4918 5.15927 17.0146 5.71893 17.3839 6.45188C17.7589 7.18484 17.9435 8.07404 17.9379 9.11949V17.4547H14.8526V9.59677C14.8526 8.72177 14.6254 8.03711 14.1708 7.54279C13.7219 7.04847 13.0998 6.80131 12.3043 6.80131C11.7646 6.80131 11.2844 6.92063 10.864 7.15927C10.4492 7.39222 10.1225 7.73029 9.88388 8.17347C9.65092 8.61665 9.53445 9.15359 9.53445 9.78427Z" fill="#101828"/>
<path d="M3.16193 0V17.4545H0V0H3.16193Z" fill="#101828"/>
</svg>
