<svg width="14" height="14" viewBox="0 0 14 14" fill="none" xmlns="http://www.w3.org/2000/svg">
<path d="M11 9L13 11M13 11L11 13M13 11H11.3793C10.7531 11 10.44 11 10.1559 10.9137C9.90428 10.8373 9.67024 10.712 9.46712 10.5451C9.23768 10.3565 9.06401 10.096 8.71669 9.57504L8.55556 9.33333M11 1L13 3M13 3L11 5M13 3H11.3793C10.7531 3 10.44 3 10.1559 3.0863C9.90428 3.1627 9.67024 3.28796 9.46712 3.45491C9.23768 3.64349 9.06401 3.90398 8.71669 4.42496L5.28331 9.57504C4.93599 10.096 4.76232 10.3565 4.53288 10.5451C4.32976 10.712 4.09572 10.8373 3.84414 10.9137C3.55996 11 3.24689 11 2.62075 11H1M1 3H2.62075C3.24689 3 3.55996 3 3.84414 3.0863C4.09572 3.1627 4.32976 3.28796 4.53288 3.45491C4.76232 3.64349 4.93599 3.90398 5.28331 4.42496L5.44444 4.66667" stroke="#344054" stroke-width="1.5" stroke-linecap="round" stroke-linejoin="round"/>
</svg>
